<mxfile host="app.diagrams.net" agent="Mozilla/5.0 (Windows NT 10.0; Win64; x64) AppleWebKit/537.36 (KHTML, like Gecko) Chrome/131.0.0.0 Safari/537.36" version="26.2.14">
  <diagram name="Page-1" id="_x8OyENhYoTvPNzetMdS">
    <mxGraphModel dx="1111" dy="473" grid="1" gridSize="10" guides="1" tooltips="1" connect="1" arrows="1" fold="1" page="1" pageScale="1" pageWidth="850" pageHeight="1100" math="0" shadow="0">
      <root>
        <mxCell id="0" />
        <mxCell id="1" parent="0" />
        <mxCell id="jB3EfWJ1xG87LPn4fxSi-1" value="User App" style="shape=umlLifeline;perimeter=lifelinePerimeter;whiteSpace=wrap;container=1;dropTarget=0;collapsible=0;recursiveResize=0;outlineConnect=0;portConstraint=eastwest;newEdgeStyle={&quot;edgeStyle&quot;:&quot;elbowEdgeStyle&quot;,&quot;elbow&quot;:&quot;vertical&quot;,&quot;curved&quot;:0,&quot;rounded&quot;:0};size=65;" vertex="1" parent="1">
          <mxGeometry x="20" y="20" width="150" height="450" as="geometry" />
        </mxCell>
        <mxCell id="jB3EfWJ1xG87LPn4fxSi-2" value="Web Server (API)" style="shape=umlLifeline;perimeter=lifelinePerimeter;whiteSpace=wrap;container=1;dropTarget=0;collapsible=0;recursiveResize=0;outlineConnect=0;portConstraint=eastwest;newEdgeStyle={&quot;edgeStyle&quot;:&quot;elbowEdgeStyle&quot;,&quot;elbow&quot;:&quot;vertical&quot;,&quot;curved&quot;:0,&quot;rounded&quot;:0};size=65;" vertex="1" parent="1">
          <mxGeometry x="345" y="20" width="150" height="450" as="geometry" />
        </mxCell>
        <mxCell id="jB3EfWJ1xG87LPn4fxSi-3" value="Database" style="shape=umlLifeline;perimeter=lifelinePerimeter;whiteSpace=wrap;container=1;dropTarget=0;collapsible=0;recursiveResize=0;outlineConnect=0;portConstraint=eastwest;newEdgeStyle={&quot;edgeStyle&quot;:&quot;elbowEdgeStyle&quot;,&quot;elbow&quot;:&quot;vertical&quot;,&quot;curved&quot;:0,&quot;rounded&quot;:0};size=65;" vertex="1" parent="1">
          <mxGeometry x="556" y="20" width="150" height="450" as="geometry" />
        </mxCell>
        <mxCell id="jB3EfWJ1xG87LPn4fxSi-4" value="Submit login form (NAME, password)" style="verticalAlign=bottom;edgeStyle=elbowEdgeStyle;elbow=vertical;curved=0;rounded=0;endArrow=block;" edge="1" parent="1" source="jB3EfWJ1xG87LPn4fxSi-10" target="jB3EfWJ1xG87LPn4fxSi-2">
          <mxGeometry relative="1" as="geometry">
            <Array as="points">
              <mxPoint x="266" y="127" />
            </Array>
          </mxGeometry>
        </mxCell>
        <mxCell id="jB3EfWJ1xG87LPn4fxSi-5" value="Query user by NAME" style="verticalAlign=bottom;edgeStyle=elbowEdgeStyle;elbow=vertical;curved=0;rounded=0;endArrow=block;" edge="1" parent="1" source="jB3EfWJ1xG87LPn4fxSi-2" target="jB3EfWJ1xG87LPn4fxSi-3">
          <mxGeometry relative="1" as="geometry">
            <Array as="points">
              <mxPoint x="534" y="179" />
            </Array>
          </mxGeometry>
        </mxCell>
        <mxCell id="jB3EfWJ1xG87LPn4fxSi-6" value="Return user data" style="verticalAlign=bottom;edgeStyle=elbowEdgeStyle;elbow=vertical;curved=0;rounded=0;dashed=1;dashPattern=2 3;endArrow=block;" edge="1" parent="1" source="jB3EfWJ1xG87LPn4fxSi-3" target="jB3EfWJ1xG87LPn4fxSi-2">
          <mxGeometry relative="1" as="geometry">
            <Array as="points">
              <mxPoint x="537" y="231" />
            </Array>
          </mxGeometry>
        </mxCell>
        <mxCell id="jB3EfWJ1xG87LPn4fxSi-7" value="Verify password" style="curved=1;endArrow=block;rounded=0;" edge="1" parent="1" source="jB3EfWJ1xG87LPn4fxSi-2" target="jB3EfWJ1xG87LPn4fxSi-2">
          <mxGeometry relative="1" as="geometry">
            <Array as="points">
              <mxPoint x="471" y="283" />
              <mxPoint x="471" y="313" />
            </Array>
          </mxGeometry>
        </mxCell>
        <mxCell id="jB3EfWJ1xG87LPn4fxSi-8" value="Return success or failure message" style="verticalAlign=bottom;edgeStyle=elbowEdgeStyle;elbow=vertical;curved=0;rounded=0;dashed=1;dashPattern=2 3;endArrow=block;" edge="1" parent="1" source="jB3EfWJ1xG87LPn4fxSi-14" target="jB3EfWJ1xG87LPn4fxSi-1">
          <mxGeometry relative="1" as="geometry">
            <Array as="points">
              <mxPoint x="269" y="365" />
            </Array>
          </mxGeometry>
        </mxCell>
        <mxCell id="jB3EfWJ1xG87LPn4fxSi-9" value="" style="rounded=0;whiteSpace=wrap;html=1;" vertex="1" parent="1">
          <mxGeometry x="415" y="90" width="20" height="110" as="geometry" />
        </mxCell>
        <mxCell id="jB3EfWJ1xG87LPn4fxSi-11" value="" style="verticalAlign=bottom;edgeStyle=elbowEdgeStyle;elbow=vertical;curved=0;rounded=0;endArrow=block;" edge="1" parent="1" source="jB3EfWJ1xG87LPn4fxSi-1" target="jB3EfWJ1xG87LPn4fxSi-10">
          <mxGeometry relative="1" as="geometry">
            <Array as="points" />
            <mxPoint x="95" y="127" as="sourcePoint" />
            <mxPoint x="420" y="127" as="targetPoint" />
          </mxGeometry>
        </mxCell>
        <mxCell id="jB3EfWJ1xG87LPn4fxSi-10" value="" style="rounded=0;whiteSpace=wrap;html=1;" vertex="1" parent="1">
          <mxGeometry x="85" y="110" width="20" height="50" as="geometry" />
        </mxCell>
        <mxCell id="jB3EfWJ1xG87LPn4fxSi-12" value="" style="rounded=0;whiteSpace=wrap;html=1;" vertex="1" parent="1">
          <mxGeometry x="405" y="210" width="20" height="50" as="geometry" />
        </mxCell>
        <mxCell id="jB3EfWJ1xG87LPn4fxSi-13" value="" style="rounded=0;whiteSpace=wrap;html=1;" vertex="1" parent="1">
          <mxGeometry x="405" y="280" width="20" height="50" as="geometry" />
        </mxCell>
        <mxCell id="jB3EfWJ1xG87LPn4fxSi-15" value="" style="verticalAlign=bottom;edgeStyle=elbowEdgeStyle;elbow=vertical;curved=0;rounded=0;dashed=1;dashPattern=2 3;endArrow=block;" edge="1" parent="1" source="jB3EfWJ1xG87LPn4fxSi-2" target="jB3EfWJ1xG87LPn4fxSi-14">
          <mxGeometry relative="1" as="geometry">
            <Array as="points" />
            <mxPoint x="420" y="365" as="sourcePoint" />
            <mxPoint x="95" y="365" as="targetPoint" />
          </mxGeometry>
        </mxCell>
        <mxCell id="jB3EfWJ1xG87LPn4fxSi-14" value="" style="rounded=0;whiteSpace=wrap;html=1;" vertex="1" parent="1">
          <mxGeometry x="410" y="340" width="20" height="50" as="geometry" />
        </mxCell>
        <mxCell id="jB3EfWJ1xG87LPn4fxSi-16" value="" style="rounded=0;whiteSpace=wrap;html=1;" vertex="1" parent="1">
          <mxGeometry x="80" y="340" width="20" height="50" as="geometry" />
        </mxCell>
        <mxCell id="jB3EfWJ1xG87LPn4fxSi-17" value="" style="rounded=0;whiteSpace=wrap;html=1;" vertex="1" parent="1">
          <mxGeometry x="630" y="150" width="20" height="90" as="geometry" />
        </mxCell>
      </root>
    </mxGraphModel>
  </diagram>
</mxfile>
